<?xml version="1.0" encoding="UTF-8" standalone="no"?>
<svg id="svg2" xmlns:rdf="http://www.w3.org/1999/02/22-rdf-syntax-ns#" xmlns="http://www.w3.org/2000/svg" height="292.95mm" width="423.33mm" version="1.1" xmlns:cc="http://creativecommons.org/ns#" xmlns:dc="http://purl.org/dc/elements/1.1/" viewBox="0 0 1500 1037.9999">
<defs id="defs4">
<pattern id="pattern5637" width="300.00002" patternUnits="userSpaceOnUse" patternTransform="translate(-3043.4 1781.5)" height="173.00002">
<g id="g5628" transform="translate(3043.4 -1781.5)">
<rect id="rect4293" height="173" width="300" y="1781.5" x="-3043.4" fill="#fff"/>
<path id="path4138" d="m-3043.4 1781.5v78.636h45.454l45.455-78.636h-90.909zm209.09 0 45.454 78.636h45.455v-78.636h-90.909zm-104.55 7.8636-45.454 78.637 45.454 78.636h90.909l45.454-78.636-45.454-78.637h-90.909zm-104.55 86.5v78.636h90.909l-45.455-78.636h-45.454zm254.55 0-45.454 78.636h90.909v-78.636h-45.455z" fill-rule="evenodd" fill="#e1e1e1"/>
<path id="path4174" d="m-3043.4 1781.5v78.637h38.636l38.636-66.841-6.8182-11.796h-70.455zm229.55 0-6.8183 11.796 38.636 66.841h38.636v-78.637h-70.454zm-118.18 31.455-38.636 66.841 38.636 66.841h77.273l38.636-66.841-38.636-66.841h-77.273zm-111.36 86.5v55.045h70.455l-31.818-55.045h-38.636zm261.36 0-31.818 55.045h70.454v-55.045h-38.636z" fill-rule="evenodd" fill="#c3c3c3"/>
<path id="path4206" d="m-3043.4 1781.5v78.636h31.818l31.818-55.046-13.636-23.591h-50zm250 0-13.636 23.591 31.818 55.046h31.818v-78.636h-50zm-131.82 55.046-31.818 55.046 31.818 55.045h63.636l31.818-55.045-31.818-55.046h-63.636zm-118.18 86.5v31.455h50l-18.182-31.455h-31.818zm268.18 0-18.182 31.455h50v-31.455h-31.818z" fill-rule="evenodd" fill="#a5a5a5"/>
<path id="path4222" d="m-3043.4 1781.5v78.636h25l25-43.25-20.455-35.386h-29.545zm270.45 0-20.455 35.386 25 43.25h25v-78.636h-29.546zm-145.45 78.636-25 43.25 25 43.25h50l25-43.25-25-43.25h-50zm-125 86.5v7.8635h29.545l-4.5453-7.8635h-25zm275 0-4.5455 7.8635h29.546v-7.8635h-25z" fill-rule="evenodd" fill="#878787"/>
<path id="path4238" d="m-3043.4 1797.2v62.909h18.182l18.182-31.455-18.182-31.455h-18.182zm281.82 0-18.182 31.455 18.182 31.455h18.182v-62.909h-18.182zm-150 86.5-18.182 31.455 18.182 31.454h36.364l18.182-31.454-18.182-31.455h-36.364z" fill-rule="evenodd" fill="#696969"/>
<path id="path4254" d="m-3043.4 1820.8v39.318h11.364l11.364-19.659-11.364-19.659h-11.364zm288.64 0-11.364 19.659 11.364 19.659h11.364v-39.318h-11.364zm-150 86.5-11.364 19.659 11.364 19.659h22.727l11.364-19.659-11.364-19.659h-22.727z" fill-rule="evenodd" fill="#4b4b4b"/>
</g>
</pattern>
</defs>
<g id="layer1" transform="translate(3043.4 -916.51)">
<rect id="rect4381" height="1038" width="1500" y="916.51" x="-3043.4" fill="url(#pattern5637)"/>
</g>
</svg>
